<svg id="eBs5XLkJvYn1" xmlns="http://www.w3.org/2000/svg" xmlns:xlink="http://www.w3.org/1999/xlink" viewBox="0 0 32 32" shape-rendering="geometricPrecision" text-rendering="geometricPrecision" project-id="caad337bae1d4c50b875beb600128a39" export-id="08d831e7794a4698b3184f20e6dfb3e4" cached="false"><path d="M16,6.75556L16,0L1.02839,14.6389c-.566086.5535-.571193,1.4627-.01136,2.0226L3.55556,19.2" fill="#28f321"/><path d="M16,6.75556L16,0L30.9716,14.6389c.5661.5535.5712,1.4627.0114,2.0226L28.4444,19.2" fill="#22c618"/><path d="M3.55556,19.2L9.6,13.1556h6.4v6.0444" fill="#1fc015"/><path d="M28.4444,19.2L22.4,13.1556h-6.4v6.0444" fill="#199d10"/><path d="M16,25.9556h-6.04445l3.02225-3.2L16,25.9556Z" fill="#15c018"/><path d="M16,32l6.0444-6.0444h-6.0444L16,32Z" fill="#18c628"/><path d="M16,32L9.95555,25.9556h6.04445L16,32Z" fill="#21f325"/><path d="M16,25.9556h6.0444l-3.0222-3.2L16,25.9556Z" fill="#119d10"/><path d="M7.72363,21.7502c-.53758.5583-.52922,1.4442.0188,1.9922l2.21313,2.2132L16,19.5556v-6.4" fill="#21f325"/><path d="M24.2764,21.7502c.5376.5583.5292,1.4442-.0188,1.9922l-2.2132,2.2132L16,19.5556v-6.4" fill="#2cc618"/></svg>
