<svg id="ecS2sPkMBE31" 
xmlns="http://www.w3.org/2000/svg" 
xmlns:xlink="http://www.w3.org/1999/xlink" 
viewBox="0 0 5333 1954.28" 
shape-rendering="geometricPrecision" 
text-rendering="geometricPrecision" 
project-id="d45c6506809d40fbb9e233e0c4c2a582" 
export-id="7ddd97545b754a55b795c4a930073aec" 
cached="false">
<path d="M1502.999113,2581.07475l366.060124-344.399762l80.14334,67.147124l431.041211-435.373284l147.290465,171.116863l62.81505-54.150906l194.943262,259.924348l253.426239-186.279116l238.263985,210.105515l47.652798-116.965957l366.060123,400.716704-322.7394-251.260204l58.482979,179.781008-376.890305-342.233725l238.263985,335.735616-281.58471-251.260203l95.305594,227.433805-314.075254-151.622537l270.754529,385.55445-489.524189-591.327893-45.486761,49.818832-158.120645-194.943262-266.422457,747.2825-15.162254-283.750746-166.78479,121.298029l86.641449-149.456501-127.796138-71.479195-372.55823,268.588497Z" transform="matrix(2.357041 0 0 2.357041-3454.375819-4402.008806)" fill="#8be4be" stroke="#caffc9" stroke-width="10.666"/>
</svg>
